<?xml version="1.0" standalone="no"?>
<!DOCTYPE svg PUBLIC "-//W3C//DTD SVG 20010904//EN"
 "http://www.w3.org/TR/2001/REC-SVG-20010904/DTD/svg10.dtd">
<svg version="1.0" xmlns="http://www.w3.org/2000/svg"
 width="1000.000000pt" height="1000.000000pt" viewBox="0 0 1000.000000 1000.000000"
 preserveAspectRatio="xMidYMid meet">
<metadata>
Created by potrace 1.16, written by Peter Selinger 2001-2019
</metadata>
<g transform="translate(0.000000,1000.000000) scale(0.100000,-0.100000)"
fill="#000000" stroke="none">
<path d="M2450 7661 l0 -68 85 -7 c46 -3 106 -11 134 -17 73 -15 150 -66 183
-119 60 -97 59 -65 56 -1503 -3 -1285 -3 -1313 -23 -1362 -25 -62 -90 -129
-151 -155 -52 -23 -151 -39 -231 -40 l-53 0 0 -70 0 -70 893 0 c490 0 897 4
902 8 6 4 10 33 10 65 1 67 8 62 -123 72 -227 16 -328 77 -372 226 -19 63 -20
97 -20 694 l0 627 93 -7 c128 -9 277 -41 343 -72 84 -40 154 -109 196 -195 48
-97 92 -247 113 -385 10 -61 23 -113 29 -115 6 -2 34 -3 61 -3 l50 0 3 853 2
853 -67 -3 -67 -3 -27 -120 c-50 -220 -130 -396 -214 -474 -84 -78 -233 -127
-412 -138 l-103 -6 0 594 c0 670 2 689 63 745 54 49 114 58 362 50 294 -8 454
-33 625 -95 162 -59 259 -157 327 -329 50 -128 73 -246 80 -409 l6 -143 71 0
c209 -1 329 -77 370 -233 19 -73 26 -2717 7 -2784 -18 -63 -70 -133 -126 -167
-48 -30 -54 -31 -170 -31 -106 0 -125 3 -163 23 -84 45 -89 127 -15 249 71
118 86 155 91 228 5 90 -21 164 -85 235 -181 202 -499 159 -618 -84 -34 -70
-44 -133 -35 -224 15 -144 50 -225 141 -327 58 -65 196 -163 269 -191 25 -9
50 -21 55 -25 29 -21 239 -61 350 -66 349 -16 629 79 831 281 148 148 228 306
281 556 l27 125 6 1085 c6 1197 3 1135 69 1227 55 77 176 122 324 123 l67 0 0
70 0 70 -805 0 -805 0 0 525 0 525 -1445 0 -1445 0 0 -69z"/>
<path d="M6983 6275 c-72 -36 -107 -91 -108 -170 0 -107 53 -177 151 -198 42
-9 65 -8 102 2 54 14 84 39 119 99 53 90 11 218 -88 269 -58 30 -113 29 -176
-2z"/>
<path d="M5040 6274 c-83 -35 -134 -143 -111 -232 14 -51 64 -110 108 -128 38
-16 114 -18 162 -4 72 20 125 110 118 198 -10 133 -153 219 -277 166z"/>
<path d="M7250 5793 c-120 -24 -400 -63 -450 -63 -31 0 -45 -17 -51 -60 -4
-23 -1 -25 31 -23 53 4 129 -17 140 -37 24 -45 -5 -197 -100 -525 -133 -462
-150 -557 -111 -633 40 -78 86 -102 194 -102 157 1 273 88 432 325 l46 70 -28
22 c-15 13 -31 22 -34 20 -3 -1 -35 -40 -71 -87 -71 -94 -119 -132 -158 -128
-55 6 -52 17 241 1077 22 80 38 150 37 156 -2 8 -37 4 -118 -12z"/>
<path d="M5280 5785 c-99 -20 -185 -33 -422 -61 -35 -4 -49 -11 -53 -25 -17
-61 -22 -56 59 -61 151 -7 152 -28 20 -508 -72 -258 -74 -267 -110 -405 -45
-174 -44 -243 7 -316 53 -76 198 -90 320 -31 70 33 120 77 191 164 46 57 142
199 136 202 -2 1 -16 12 -31 24 l-29 21 -58 -77 c-66 -88 -104 -127 -141 -140
-38 -15 -59 2 -59 46 0 32 59 262 175 677 18 66 45 165 60 220 15 55 38 138
51 185 13 46 24 90 24 97 0 16 0 16 -140 -12z"/>
<path d="M2031 4111 l-34 -28 87 -122 c48 -66 94 -121 102 -121 8 0 14 4 14 8
0 5 12 15 26 22 15 9 24 20 21 30 -7 25 -161 239 -172 239 -5 0 -25 -12 -44
-28z"/>
<path d="M7745 4001 c-44 -19 -85 -84 -85 -135 0 -30 48 -102 77 -115 31 -14
86 -14 118 1 29 13 30 15 11 59 -19 45 -25 50 -46 37 -25 -16 -50 -3 -50 27 0
24 7 29 41 26 22 -2 74 78 60 92 -13 13 -101 19 -126 8z"/>
<path d="M1893 3886 c-62 -45 -115 -85 -119 -89 -6 -6 43 -87 52 -87 4 0 225
158 238 171 9 8 -38 90 -52 88 -4 0 -57 -38 -119 -83z"/>
<path d="M7923 3909 c-38 -11 -39 -14 -15 -65 14 -33 21 -39 43 -36 30 3 59
-20 59 -48 0 -29 -30 -53 -59 -47 -22 5 -31 -1 -55 -34 -15 -22 -27 -41 -25
-43 71 -47 169 -26 216 45 22 33 25 47 21 94 -5 64 -30 97 -93 126 -45 21 -47
21 -92 8z"/>
<path d="M1593 3813 c-21 -8 -15 -28 24 -84 38 -56 144 -200 153 -209 3 -3 30
-34 60 -70 96 -114 278 -299 360 -366 19 -16 43 -37 53 -47 25 -25 325 -247
333 -247 3 0 27 -15 53 -34 42 -31 88 -58 204 -125 422 -238 971 -420 1481
-491 182 -25 504 -50 646 -50 304 0 743 54 1065 130 192 46 499 146 635 207
19 8 51 22 70 30 109 48 313 151 402 204 57 34 112 67 123 73 52 29 229 153
310 216 148 118 194 158 330 295 148 147 167 169 254 280 34 44 68 87 75 96 7
8 33 45 59 81 39 56 44 68 32 78 -23 19 -38 7 -99 -79 -193 -277 -431 -518
-732 -745 -54 -41 -103 -79 -109 -83 -14 -11 -280 -176 -330 -204 -462 -258
-1090 -449 -1645 -499 -847 -77 -1672 70 -2370 420 -315 158 -543 309 -810
534 -72 61 -298 295 -373 386 -107 130 -99 119 -169 220 -34 49 -64 90 -67 89
-3 0 -12 -3 -18 -6z"/>
<path d="M2329 3711 c-24 -27 -95 -101 -158 -166 l-113 -117 33 -34 c18 -19
39 -34 47 -34 8 0 35 21 59 48 25 26 95 98 156 160 l110 113 -39 40 c-21 21
-41 39 -45 39 -3 0 -26 -22 -50 -49z"/>
<path d="M7403 3622 l-63 -58 31 -37 31 -37 64 56 c35 31 64 62 64 68 0 12
-51 67 -61 66 -2 -1 -32 -27 -66 -58z"/>
<path d="M2450 3615 l-34 -35 54 -56 c81 -82 87 -84 128 -39 l34 37 -63 64
c-35 35 -68 64 -74 64 -6 0 -26 -16 -45 -35z"/>
<path d="M7570 3528 c-14 -11 -44 -38 -68 -60 l-43 -39 28 -34 c15 -18 32 -34
36 -34 10 -1 127 109 127 118 -1 3 -13 20 -28 38 l-27 31 -25 -20z"/>
<path d="M2327 3482 l-37 -38 23 -18 c12 -10 43 -39 69 -64 l48 -46 35 34 c19
19 35 39 35 44 0 10 -123 126 -132 126 -2 0 -21 -17 -41 -38z"/>
<path d="M7257 3492 c-27 -28 -34 -47 -19 -54 4 -1 49 -50 101 -108 52 -58
117 -129 144 -158 l50 -54 35 35 35 35 -36 39 c-20 21 -87 95 -149 165 -62 70
-118 127 -124 127 -5 1 -22 -12 -37 -27z"/>
<path d="M7642 3352 l-62 -57 26 -32 c14 -18 30 -33 35 -33 15 0 129 102 129
115 0 11 -51 65 -61 65 -2 0 -32 -26 -67 -58z"/>
<path d="M2200 3355 l-35 -36 45 -41 c25 -23 57 -53 73 -67 l27 -25 35 34 c19
19 35 37 35 41 0 11 -119 123 -134 127 -6 1 -27 -13 -46 -33z"/>
<path d="M6987 3295 c-20 -14 -37 -29 -37 -34 0 -4 55 -91 123 -194 l123 -187
40 27 c21 14 40 27 42 29 2 1 -49 82 -113 180 -64 98 -119 184 -122 191 -7 18
-13 17 -56 -12z"/>
<path d="M2763 3292 c-56 -23 -98 -65 -130 -130 -21 -44 -25 -62 -20 -107 3
-29 13 -69 21 -87 16 -33 59 -88 68 -88 3 0 17 18 32 40 l26 40 -20 32 c-12
21 -20 51 -20 80 0 38 6 54 30 82 36 40 85 60 132 52 30 -6 35 -2 56 30 29 46
28 50 -9 63 -46 16 -117 13 -166 -7z"/>
<path d="M2978 3215 l-25 -35 25 -51 25 -50 46 3 c45 3 46 3 43 36 -3 39 -21
77 -52 110 -28 29 -32 28 -62 -13z"/>
<path d="M6585 3079 c-142 -34 -222 -194 -165 -328 97 -223 420 -187 465 52 5
25 4 37 -4 37 -24 0 -111 -51 -121 -71 -29 -53 -132 -77 -190 -43 -60 36 -79
126 -40 190 24 38 87 66 139 62 32 -3 35 0 49 40 8 25 10 47 6 52 -15 14 -97
19 -139 9z"/>
<path d="M3245 2858 c-44 -111 -81 -207 -83 -213 -3 -12 85 -51 94 -43 13 13
171 418 166 423 -10 10 -72 35 -86 35 -6 0 -47 -91 -91 -202z"/>
<path d="M6728 2937 l-108 -52 20 -44 c17 -37 23 -42 44 -37 39 10 196 88 196
98 0 9 -39 88 -43 88 -1 -1 -50 -24 -109 -53z"/>
<path d="M3601 2928 c-5 -13 -43 -108 -85 -212 -42 -104 -75 -190 -74 -191 2
-2 22 -12 45 -24 32 -16 44 -18 50 -8 13 20 60 133 115 272 27 72 52 133 54
137 5 8 -36 31 -73 42 -18 6 -25 2 -32 -16z"/>
<path d="M2775 2895 c-14 -22 -21 -43 -16 -48 25 -25 162 -30 176 -7 3 4 -1
25 -9 46 -13 38 -14 39 -70 44 l-58 5 -23 -40z"/>
<path d="M3931 2842 c-5 -10 -13 -41 -17 -69 l-6 -51 73 -99 c189 -255 241
-323 248 -323 11 0 104 451 94 461 -4 4 -28 9 -53 11 l-44 3 -25 -112 c-13
-62 -28 -110 -32 -107 -4 2 -57 72 -118 155 -95 129 -111 147 -120 131z"/>
<path d="M5887 2836 c-57 -21 -100 -58 -129 -112 -29 -54 -44 -142 -25 -150
19 -7 102 21 103 34 1 7 2 22 3 33 0 12 18 39 40 60 32 33 45 39 80 39 49 0
92 -20 117 -54 18 -24 22 -25 64 -15 25 6 49 14 53 18 16 16 -57 105 -107 130
-58 30 -144 37 -199 17z"/>
<path d="M4674 2707 c-58 -28 -109 -85 -126 -140 -14 -46 -4 -57 54 -57 33 0
40 4 57 38 51 99 196 95 239 -8 17 -39 18 -40 70 -40 47 0 52 2 52 23 -1 33
-33 98 -68 134 -46 47 -89 66 -162 70 -54 3 -74 0 -116 -20z"/>
<path d="M5243 2715 c-3 -9 -1 -55 5 -103 6 -48 16 -147 23 -219 l12 -133 31
0 c17 0 42 3 54 7 23 6 24 8 17 87 -4 45 -13 140 -21 211 -7 72 -14 138 -14
148 0 14 -9 17 -50 17 -36 0 -52 -4 -57 -15z"/>
<path d="M3886 2643 c-16 -59 -49 -244 -43 -249 7 -8 90 -24 95 -19 2 2 12 42
23 90 l19 86 -37 54 c-41 59 -49 64 -57 38z"/>
<path d="M6138 2628 c-20 -7 -30 -20 -38 -47 -14 -54 -45 -89 -91 -102 -52
-16 -109 1 -143 42 -27 32 -38 33 -100 9 -33 -12 -25 -38 31 -94 97 -97 248
-99 340 -6 56 57 73 95 73 166 0 39 -2 44 -22 43 -13 0 -35 -5 -50 -11z"/>
<path d="M4535 2470 c-9 -15 16 -86 43 -124 87 -121 252 -139 362 -40 38 35
86 127 75 144 -3 6 -27 10 -53 10 -44 0 -49 -2 -67 -37 -54 -99 -186 -95 -237
7 -16 32 -23 36 -69 40 -28 3 -52 3 -54 0z"/>
<path d="M5447 2383 c-27 -4 -28 -6 -25 -56 l3 -52 55 3 c86 5 85 5 82 62 l-4
50 -41 -1 c-23 -1 -55 -4 -70 -6z"/>
</g>
</svg>
